<svg version="1.2" xmlns="http://www.w3.org/2000/svg" viewBox="0 0 2946 2946" width="2946" height="2946">
	<title>Backpack</title>
	<style>
		.s0 { fill: #a22300 } 
		.s1 { fill: #911f00 } 
	</style>
	<g id="pebebin">
		<path id="PEBEBİN" fill-rule="evenodd" class="s0" d="m1472.7 1850.3c-57.5-0.1-66-42.3-107.8-42.4-42-0.1-12.9 11.2-59.2 11.3-44.4 0-59.5-64.9-101.3-64.8-39.3 0.1-56.1 9.7-93.7 9.8-35.9 0-40.2-60.1-82-59.7-41.9 0.3 1.2 29.7 1.2 29.7-55.2 0-162.3-107.3-182.2-174-20-66.7-54-283.3-54-283.3-32.9-187.1-68.9-243.7 100-100 168.9 143.7 459.5 170.9 579 170.7 0 0 0.2 0 0.2 0 119.2 0.5 118.5 494.6-0.2 502.7z"/>
		<g id="gölgeler">
			<path id="gölge" class="s1" d="m1933.8 1707.1c10-92.4-13.9-268.4-22.3-251.6-2.8 5.5 7.2 129.5-4.5 248.6"/>
			<path id="Katman 2" class="s1" d="m1720.7 1758.2c12.1-73.4 10.6-156.8 13.6-177.6 1.4-9.9 29.7 122.1 25.4 174.6"/>
			<path id="Katman 3" class="s1" d="m1598.7 1810.2c5.8-41.9 0.2-149-4.8-115.9-2.8 18.9-10.5 76.8-28.2 113.9"/>
			<path id="gölge" class="s1" d="m1011.6 1707.1c-10-92.4 13.8-268.4 22.3-251.6 2.8 5.5-7.2 129.5 4.5 248.6"/>
			<path id="Katman 2" class="s1" d="m1224.7 1758.2c-12.1-73.4-10.6-156.8-13.6-177.6-1.4-9.9-29.8 122.1-25.4 174.6"/>
			<path id="Katman 3" class="s1" d="m1346.7 1810.2c-5.9-41.9-0.2-149 4.7-115.9 2.8 18.9 10.6 76.8 28.3 113.9"/>
		</g>
	</g>
</svg>